#!OML:ASF X:\für Bonn\!DataBase\2005_08_12_Daniel\c3d\Daniel.ASF
:FULLY-SPECIFIED
:DEGREES
61
root -27.5221 16.1186 -24.7772 -8.04595 45.4092 -717.392
lowerback 41.9835 0.196431 1.49309
upperback 11.9351 1.29917 -4.22613
thorax -6.58893 1.17093 -5.85113
lowerneck -3.6624 -0.671624 -6.30996
upperneck -4.77651 -0.666231 -0.0540166
head -0.84532 -0.205285 1.03184
rclavicle -3.97569e-015 6.75868e-015
rhumerus -24.2585 8.02302 -93.0314
rradius 57.7296
rwrist 0.714948
rhand -25.9747 23.5588
rfingers 7.12502
rthumb 0.570223 -6.42021
lclavicle -3.97569e-015 6.75868e-015
lhumerus -21.7119 32.9137 76.6003
lradius 26.6787
lwrist -25.8285
lhand -14.4312 -7.97901
lfingers 7.12502
lthumb 11.7133 21.6735
rfemur -0.677655 8.56365 22.3898
rtibia 60.3314
rfoot -26.2783 13.971
rtoes 0.0841172
lfemur -35.915 -6.72445 -15.6468
ltibia 39.6085
lfoot -9.86894 -3.95481
ltoes -15.1414
62
root -27.4253 16.1143 -24.7239 -7.81684 45.404 -717.429
lowerback 42.0465 0.246015 1.47294
upperback 11.8807 1.34008 -4.29806
thorax -6.66418 1.18887 -5.93785
lowerneck -3.6815 -0.716373 -6.36845
upperneck -4.92553 -0.720639 0.0738066
head -0.886705 -0.228413 1.08286
rclavicle 1.47101e-014 -3.65764e-014
rhumerus -24.1685 8.08824 -93.0988
rradius 58.1922
rwrist 0.731328
rhand -25.963 23.5483
rfingers 7.12502
rthumb 0.581472 -6.43065
lclavicle 1.47101e-014 -3.65764e-014
lhumerus -21.8774 33.5072 76.1613
lradius 26.1436
lwrist -26.4308
lhand -14.4225 -7.76156
lfingers 7.12502
lthumb 11.7217 21.8905
rfemur -0.479835 8.64445 22.3276
rtibia 60.2024
rfoot -26.1756 14.0598
rtoes 0.0613036
lfemur -36.3524 -6.4912 -15.7854
ltibia 40.3332
lfoot -9.19333 -4.33205
ltoes -14.7792
63
root -27.3283 16.1115 -24.671 -7.56119 45.4128 -717.465
lowerback 42.0993 0.289606 1.45803
upperback 11.8123 1.37423 -4.3679
thorax -6.7528 1.20238 -6.02276
lowerneck -3.66146 -0.759677 -6.39469
upperneck -5.05793 -0.777944 0.162869
head -0.929426 -0.253783 1.11625
rclavicle 1.78906e-014 2.78299e-015
rhumerus -24.1452 8.22459 -93.1507
rradius 58.696
rwrist 0.736218
rhand -25.9723 23.4363
rfingers 7.12502
rthumb 0.572529 -6.54266
lclavicle 1.78906e-014 2.78299e-015
lhumerus -22.0966 34.1414 75.7102
lradius 25.6497
lwrist -27.0159
lhand -14.3869 -7.5638
lfingers 7.12502
lthumb 11.756 22.0863
rfemur -0.299446 8.70041 22.2616
rtibia 60.0499
rfoot -26.0547 14.1171
rtoes 0.028705
lfemur -36.8359 -6.28401 -15.9307
ltibia 41.0825
lfoot -8.59355 -4.66779
ltoes -14.7213
64
root -27.2315 16.1084 -24.6165 -7.30104 45.4238 -717.502
lowerback 42.1336 0.332329 1.44771
upperback 11.7627 1.41041 -4.44139
thorax -6.81465 1.21841 -6.11396
lowerneck -3.68552 -0.80716 -6.44919
upperneck -5.18212 -0.835481 0.273052
head -0.962125 -0.279106 1.16107
rclavicle 5.80451e-014 -6.0033e-014
rhumerus -24.0899 8.33525 -93.2013
rradius 59.1474
rwrist 0.768746
rhand -25.973 23.3664
rfingers 7.12502
rthumb 0.571828 -6.61254
lclavicle 5.80451e-014 -6.0033e-014
lhumerus -22.2913 34.7982 75.2532
lradius 25.1618
lwrist -27.7607
lhand -14.269 -7.45393
lfingers 7.12502
lthumb 11.8697 22.1896
rfemur -0.106039 8.76314 22.1983
rtibia 59.8725
rfoot -25.9298 14.1781
rtoes 0.0765258
lfemur -37.3228 -6.10283 -16.0699
ltibia 41.8453
lfoot -8.09219 -4.9545
ltoes -14.847
